<svg width="1004" height="819" viewBox="0 0 1004 819" fill="none" xmlns="http://www.w3.org/2000/svg">
<path opacity="0.4" d="M472.712 489.629C510.841 628.287 425.221 772.737 281.473 812.266C137.727 851.794 250.386 699.213 107.655 605.807C-58.8636 496.833 -0.351741 349.667 143.395 310.138C287.143 270.609 434.583 350.97 472.712 489.629Z" fill="#7D8E38"/>
<path opacity="0.6" d="M465.867 445.878C503.996 584.536 427.668 726.431 295.382 762.808C163.098 799.184 264.294 649.755 130.241 553.963C-26.1551 442.205 25.0191 297.057 157.304 260.68C289.59 224.304 427.738 307.22 465.867 445.878Z" fill="#7D8E38"/>
<path opacity="0.7" d="M480.784 392.836C518.913 531.494 448.35 671.803 323.176 706.224C198.003 740.645 292.088 593.172 163.419 495.9C13.3034 382.415 59.9249 238.518 185.098 204.097C310.272 169.676 442.655 254.177 480.784 392.836Z" fill="#7D8E38"/>
<path d="M489.665 325.127C527.794 463.785 463.326 602.419 345.67 634.772C228.016 667.126 314.583 521.72 191.604 422.882C48.1291 307.571 89.9375 164.998 207.592 132.645C325.247 100.291 451.535 186.469 489.665 325.127Z" fill="#A3A3A3" fill-opacity="0.7"/>
<path opacity="0.7" d="M530.256 376.319C568.385 514.977 700.768 599.479 825.942 565.058C951.115 530.637 794.854 452.006 855.697 302.62C926.679 128.336 813.037 28.5097 687.864 62.9307C562.69 97.3518 492.127 237.661 530.256 376.319Z" fill="#7D8E38"/>
<path opacity="0.6" d="M570.197 414.276C608.326 552.934 746.474 635.851 878.76 599.474C1011.04 563.097 847.672 486.422 913.898 335.555C991.161 159.544 872.966 60.9701 740.681 97.3467C608.396 133.723 532.067 275.618 570.197 414.276Z" fill="#7D8E38"/>
<path opacity="0.4" d="M586.684 455.376C624.814 594.034 772.254 674.395 916.002 634.866C1059.75 595.338 884.914 521.814 959.816 368.562C1047.2 189.767 921.67 93.2105 777.923 132.739C634.175 172.268 548.555 316.717 586.684 455.376Z" fill="#7D8E38"/>
<path d="M488.004 322.671C526.133 461.329 652.421 547.507 770.077 515.154C887.731 482.8 738.989 402.101 794.139 254.281C858.482 81.8226 749.653 -19.3271 631.998 13.0263C514.343 45.38 449.875 184.013 488.004 322.671Z" fill="#A3A3A3" fill-opacity="0.7"/>
</svg>
