<svg width="32" height="35" viewBox="0 0 32 35" fill="none" xmlns="http://www.w3.org/2000/svg">
<path d="M31.9118 0L28.9196 31.597L15.9557 35L2.99157 31.597L0 0H31.9118ZM25.8823 6.42475H15.944H5.82962L6.31333 10.2404H15.944H16.485L15.944 10.4599L6.66532 14.2275L6.97304 17.9571L15.944 17.9855L20.7522 18.0003L20.4444 22.9734L15.9439 24.2087V24.2048L15.9071 24.2148L11.5607 23.1451L11.297 20.0581H11.2826H7.25118H7.23699L7.76468 26.0175L15.9441 28.3757V28.3714L15.9588 28.3757L24.0944 26.0604L25.1497 14.2275H15.9441H15.9214L15.9441 14.2179L25.4869 10.2404L25.8823 6.42475Z" fill="#161616"/>
</svg>
