<svg width="594" height="484" viewBox="0 0 594 484" fill="none" xmlns="http://www.w3.org/2000/svg">
<path opacity="0.4" d="M281.105 288.192C303.779 370.647 252.864 456.546 167.382 480.052C81.901 503.559 148.895 412.824 64.0187 357.279C-35.0042 292.476 -0.20926 204.961 85.2719 181.455C170.754 157.949 258.431 205.737 281.105 288.192Z" fill="#7D8E38"/>
<path opacity="0.6" d="M277.034 262.175C299.708 344.63 254.319 429.009 175.653 450.641C96.9881 472.273 157.166 383.413 77.4495 326.449C-15.5537 259.991 14.8778 173.676 93.5428 152.044C172.208 130.412 254.36 179.719 277.034 262.175Z" fill="#7D8E38"/>
<path opacity="0.7" d="M285.905 230.632C308.579 313.088 266.618 396.524 192.181 416.994C117.745 437.462 173.695 349.765 97.1792 291.921C7.91099 224.435 35.6352 138.865 110.071 118.396C184.508 97.9273 263.231 148.177 285.905 230.632Z" fill="#7D8E38"/>
<path d="M291.186 190.369C313.86 272.824 275.523 355.264 205.558 374.503C135.593 393.743 187.071 307.275 113.94 248.5C28.6207 179.929 53.4826 95.1457 123.448 75.9062C193.413 56.6666 268.512 107.913 291.186 190.369Z" fill="#A3A3A3" fill-opacity="0.7"/>
<path opacity="0.7" d="M312.352 223.784C335.026 306.239 413.749 356.489 488.186 336.02C562.622 315.551 469.699 268.792 505.879 179.957C548.09 76.3167 480.511 16.9536 406.075 37.4225C331.639 57.8916 289.677 141.328 312.352 223.784Z" fill="#7D8E38"/>
<path opacity="0.6" d="M336.103 246.355C358.777 328.81 440.929 378.118 519.594 356.486C598.259 334.854 501.107 289.258 540.49 199.543C586.435 94.8754 516.149 36.2568 437.484 57.8887C358.818 79.5207 313.429 163.9 336.103 246.355Z" fill="#7D8E38"/>
<path opacity="0.4" d="M345.907 270.796C368.581 353.251 456.259 401.039 541.741 377.532C627.222 354.026 523.254 310.304 567.795 219.171C619.761 112.848 545.111 55.429 459.63 78.9352C374.149 102.442 323.233 188.34 345.907 270.796Z" fill="#7D8E38"/>
<path d="M287.226 191.881C309.9 274.336 384.999 325.583 454.964 306.344C524.929 287.104 436.477 239.115 469.273 151.212C507.536 48.657 442.819 -11.4931 372.854 7.74636C302.888 26.9859 264.551 109.426 287.226 191.881Z" fill="#A3A3A3" fill-opacity="0.7"/>
</svg>
