<svg width="22" height="31" viewBox="0 0 22 31" fill="none" xmlns="http://www.w3.org/2000/svg">
<path d="M11 2H6.5C4.01472 2 2 4.01472 2 6.5C2 8.98527 4.01472 11 6.5 11M11 2V11M11 2H15.5C17.9853 2 20 4.01472 20 6.5C20 8.98527 17.9853 11 15.5 11M6.5 11H11M6.5 11C4.01472 11 2 13.0147 2 15.5C2 17.9854 4.01472 20 6.5 20M11 11H15.5M11 11V20M15.5 11C17.9853 11 20 13.0147 20 15.5C20 17.9854 17.9853 20 15.5 20C13.0146 20 11 17.9854 11 15.5C11 13.0147 13.0146 11 15.5 11ZM11 20H6.5M11 20V24.5C11 26.9853 8.98535 29 6.5 29C4.01472 29 2 26.9853 2 24.5C2 22.0146 4.01472 20 6.5 20" stroke="#161616" stroke-width="4" stroke-linecap="round" stroke-linejoin="round"/>
</svg>
