<svg width="32" height="35" viewBox="0 0 32 35" fill="none" xmlns="http://www.w3.org/2000/svg">
<path d="M0.911743 0L3.72216 31.5015L16.3339 35L28.9806 31.4966L31.7941 0H0.911743ZM25.9317 7.47573L25.7557 9.43437L25.6784 10.3029H25.6656H16.3529H16.3394H10.8837L11.237 14.2592H16.3394H16.3529H24.2846H25.3265L25.2321 15.2966L24.3236 25.4683L24.2654 26.1206L16.3529 28.312V28.3128L16.3352 28.3178L8.41557 26.1206L7.8739 20.0544H9.66266H11.7549L12.0302 23.1357L16.3359 24.2977L16.3394 24.2967V24.2963L20.6517 23.1335L21.1001 18.1226H16.3529H16.3394H7.70118L6.75101 7.47573L6.65841 6.43935H16.3395H16.3529H26.0242L25.9317 7.47573Z" fill="#161616"/>
</svg>
