<svg width="30" height="29" viewBox="0 0 30 29" fill="none" xmlns="http://www.w3.org/2000/svg">
<path d="M14.8333 0C6.87889 0 0.333344 6.54554 0.333344 14.5C0.333344 22.4545 6.87889 29 14.8333 29C22.7878 29 29.3333 22.4545 29.3333 14.5C29.3333 6.54554 22.7878 0 14.8333 0ZM14.8333 2.99425C21.1843 2.99425 26.3391 8.149 26.3391 14.5C26.3391 20.851 21.1843 26.0058 14.8333 26.0058C8.48234 26.0058 3.32759 20.851 3.32759 14.5C3.32759 13.4306 3.47259 12.3963 3.74689 11.4139C4.27538 12.1838 4.98337 12.8134 5.80969 13.2483C6.63601 13.6833 7.5558 13.9105 8.48959 13.9103C10.0155 13.9097 11.4787 13.3033 12.5576 12.2243C13.6366 11.1453 14.243 9.68213 14.2437 8.15625C14.2439 7.22231 14.0166 6.30237 13.5814 5.47601C13.1462 4.64966 12.5163 3.94176 11.7461 3.41354C12.7514 3.1345 13.79 2.99345 14.8333 2.99425Z" fill="#161616"/>
</svg>
