<svg width="1728" height="1117" viewBox="0 0 1728 1117" fill="none" xmlns="http://www.w3.org/2000/svg">
<path fill-rule="evenodd" clip-rule="evenodd" d="M0 0H1728V1117H0V0ZM734.382 819.052C809.209 798.476 857.549 730.092 853.23 658.059C856.524 646.165 858.473 633.695 858.944 620.908C864.377 600.964 866.109 579.208 863.543 556.926C872.745 577.546 885.421 595.487 900.379 609.938C907.322 620.685 915.373 630.406 924.286 638.943C957.405 703.057 1033.91 737.109 1108.74 716.532C1153.28 704.285 1146.39 686.549 1135.87 659.479C1126.2 634.594 1113.46 601.821 1134.8 558.171C1170.09 485.958 1146.98 436.304 1101.73 419.242C1091.29 407.646 1077.42 399.584 1061.54 395.504C1053.23 387.322 1043.17 381.186 1031.96 377.303C1012.34 348.584 976.829 336.579 939.854 346.746C877.708 363.836 840.516 430.788 848.868 503.323C819.039 436.484 752.711 397.785 690.448 414.906C653.472 425.074 629.094 453.548 626.918 488.26C619.266 497.331 613.758 507.748 610.802 519.028C599.242 530.653 591.443 544.674 588.396 559.979C558.238 597.776 563.764 652.266 631.019 696.279C671.672 722.883 677.484 757.561 681.898 783.891C686.699 812.534 689.844 831.3 734.382 819.052Z" fill="url(#paint0_linear_620_110)"/>
<defs>
<linearGradient id="paint0_linear_620_110" x1="3.42722e-05" y1="699.555" x2="1594.77" y2="76.459" gradientUnits="userSpaceOnUse">
<stop stop-color="#303030"/>
<stop offset="1" stop-color="#8E8E8E"/>
</linearGradient>
</defs>
</svg>
