<svg width="35" height="27" viewBox="0 0 35 27" fill="none" xmlns="http://www.w3.org/2000/svg">
<path d="M25.6667 18.4286H17.3333M9.00001 10.2143L14 14.3214L9.00001 18.4286M2.33334 19.7432V7.25747C2.33334 5.41729 2.33334 4.49652 2.69666 3.79367C3.01623 3.17542 3.52579 2.67313 4.15301 2.35813C4.86604 2 5.80016 2 7.66701 2H27.0003C28.8672 2 29.7993 2 30.5123 2.35813C31.1395 2.67313 31.6508 3.17542 31.9703 3.79367C32.3333 4.49583 32.3333 5.41548 32.3333 7.25207V19.7479C32.3333 21.5845 32.3333 22.5029 31.9703 23.205C31.6508 23.8232 31.1395 24.3273 30.5123 24.6422C29.8 25 28.8683 25 27.0052 25H7.66153C5.79833 25 4.86534 25 4.15301 24.6422C3.52579 24.3273 3.01623 23.8232 2.69666 23.205C2.33334 22.5022 2.33334 21.5834 2.33334 19.7432Z" stroke="#161616" stroke-width="4" stroke-linecap="round" stroke-linejoin="round"/>
</svg>
