<svg width="28" height="35" viewBox="0 0 28 35" fill="none" xmlns="http://www.w3.org/2000/svg">
<path d="M18.36 0H12.7742V8.72637C11.9397 8.50356 11.2509 8.42925 10.3439 8.42925C4.50429 8.42925 0.731628 12.2197 0.731628 18.0539C0.731628 24.1115 4.28662 27.2701 11.106 27.2701C13.39 27.2701 15.4942 27.0472 18.3601 26.4898V0H18.36ZM12.7742 22.5139C11.9762 22.6251 11.4684 22.662 10.8519 22.662C7.98621 22.662 6.42639 20.9901 6.42639 17.9425C6.42639 14.8211 8.05848 13.0373 10.8884 13.0373C11.5772 13.0373 12.121 13.1116 12.7742 13.3345V22.5139ZM27.2468 0.0307534V5.9024H21.6607V0.0307534H27.2468ZM21.6607 8.83781H27.2468V22.1049C27.2468 26.6758 26.9199 28.8681 25.9407 30.7636C25.0341 32.5848 23.8371 33.7364 21.3702 35L16.1832 32.4729C18.6493 31.2839 19.8474 30.244 20.6086 28.6453C21.4065 27.0101 21.6607 25.1149 21.6607 20.1349V8.83781Z" fill="#161616"/>
</svg>
