<svg width="35" height="35" viewBox="0 0 35 35" fill="none" xmlns="http://www.w3.org/2000/svg">
<path fill-rule="evenodd" clip-rule="evenodd" d="M18.2293 8.02083H14.5835V4.375H18.2293V8.02083ZM14.5835 13.125H18.2293V9.47917H14.5835V13.125ZM1.45849 20.8294C1.45849 27.704 6.60641 32.2875 13.6793 32.2875C21.0002 32.2875 28.6579 26.4892 28.6579 19.1698C30.5581 19.9763 32.8156 18.9423 33.5418 17.01C32.8156 15.0821 31.3835 14.8196 29.4862 15.6231C30.1833 12.1348 26.38 11.7527 26.38 11.7527C26.38 11.7527 24.0175 13.5071 26.1102 16.2969C26.1102 16.2969 25.9031 20.0652 22.8464 20.0652H2.22266C1.83036 20.0652 1.44245 20.4385 1.45849 20.8294ZM23.3335 18.2292H19.6877V14.5833H23.3335V18.2292ZM14.5835 18.2292H18.2293V14.5833H14.5835V18.2292ZM13.1252 18.2292H9.47932V14.5833H13.1252V18.2292ZM9.47932 13.125H13.1252V9.47917H9.47932V13.125ZM8.02099 18.2292H4.37516V14.5833H8.02099V18.2292Z" fill="#161616"/>
</svg>
