<svg width="16" height="18" viewBox="0 0 16 18" fill="none" xmlns="http://www.w3.org/2000/svg">
<path d="M6.02564 14.7172C2.4359 15.8586 2.4359 12.8149 1 12.4344ZM11.0513 17V14.0552C11.0782 13.6923 11.032 13.3276 10.9156 12.9852C10.7992 12.6427 10.6154 12.3305 10.3764 12.0691C12.6308 11.8028 15 10.8973 15 6.74261C14.9998 5.68022 14.6142 4.65856 13.9231 3.88911C14.2504 2.95963 14.2272 1.93225 13.8585 1.02039C13.8585 1.02039 13.0113 0.754061 11.0513 2.14657C9.40575 1.67389 7.67117 1.67389 6.02564 2.14657C4.06564 0.754061 3.21846 1.02039 3.21846 1.02039C2.84971 1.93225 2.82656 2.95963 3.15385 3.88911C2.45753 4.66427 2.07155 5.69516 2.07692 6.76544C2.07692 10.8897 4.44615 11.7952 6.70051 12.092C6.46431 12.3507 6.28214 12.6592 6.16586 12.9974C6.04959 13.3357 6.00181 13.6961 6.02564 14.0552V17" fill="#161616"/>
<path d="M6.02564 14.7172C2.4359 15.8586 2.4359 12.8149 1 12.4344M11.0513 17V14.0552C11.0782 13.6923 11.032 13.3276 10.9156 12.9852C10.7992 12.6427 10.6154 12.3305 10.3764 12.0691C12.6308 11.8028 15 10.8973 15 6.74261C14.9998 5.68022 14.6142 4.65856 13.9231 3.88911C14.2504 2.95963 14.2272 1.93225 13.8585 1.02039C13.8585 1.02039 13.0113 0.754061 11.0513 2.14657C9.40575 1.67389 7.67117 1.67389 6.02564 2.14657C4.06564 0.754061 3.21846 1.02039 3.21846 1.02039C2.84971 1.93225 2.82656 2.95963 3.15385 3.88911C2.45753 4.66427 2.07155 5.69516 2.07692 6.76544C2.07692 10.8897 4.44615 11.7952 6.70051 12.092C6.46431 12.3507 6.28214 12.6592 6.16586 12.9974C6.04959 13.3357 6.00181 13.6961 6.02564 14.0552V17" stroke="#161616" stroke-linecap="round" stroke-linejoin="round"/>
</svg>
