<svg width="36" height="35" viewBox="0 0 36 35" fill="none" xmlns="http://www.w3.org/2000/svg">
<path fill-rule="evenodd" clip-rule="evenodd" d="M20.1339 4.20654C18.8634 2.93593 16.8032 2.93593 15.5327 4.20654L14.4402 5.29905L16.9907 7.84943C17.2594 7.77756 17.5418 7.73923 17.8333 7.73923C19.6303 7.73923 21.0869 9.19591 21.0869 10.9928C21.0869 11.2843 21.0485 11.5668 20.9768 11.8356L24.3112 15.1699C24.58 15.0982 24.8624 15.0598 25.1539 15.0598C26.9508 15.0598 28.4075 16.5164 28.4075 18.3134C28.4075 20.1103 26.9508 21.567 25.1539 21.567C23.3569 21.567 21.9003 20.1103 21.9003 18.3134C21.9003 18.0219 21.9387 17.7394 22.0104 17.4707L19.4601 14.9202V22.8157C20.4326 23.3782 21.0869 24.4296 21.0869 25.6339C21.0869 27.4309 19.6303 28.8875 17.8333 28.8875C16.0364 28.8875 14.5797 27.4309 14.5797 25.6339C14.5797 24.4296 15.234 23.3782 16.2065 22.8157V13.8111C15.234 13.2486 14.5797 12.1971 14.5797 10.9928C14.5797 10.7014 14.6181 10.4189 14.6899 10.1501L12.1396 7.59967L4.53988 15.1994C3.26928 16.4699 3.26928 18.5301 4.53988 19.8006L15.5327 30.7935C16.8032 32.064 18.8634 32.064 20.1339 30.7935L31.1268 19.8006C32.3973 18.5301 32.3973 16.4699 31.1268 15.1994L20.1339 4.20654ZM13.2321 1.9059C15.7733 -0.635305 19.8933 -0.635299 22.4345 1.90591L33.4274 12.8987C35.9686 15.44 35.9686 19.56 33.4274 22.1012L22.4345 33.0941C19.8933 35.6353 15.7733 35.6353 13.2321 33.0941L2.23924 22.1012C-0.301962 19.56 -0.301955 15.44 2.23926 12.8987L13.2321 1.9059Z" fill="#161616"/>
</svg>
