<svg width="35" height="35" viewBox="0 0 35 35" fill="none" xmlns="http://www.w3.org/2000/svg">
<path fill-rule="evenodd" clip-rule="evenodd" d="M26.824 32.2562C23.7703 32.2562 21.7962 30.8004 20.8337 28.8964L23.5112 27.3455C24.2165 28.497 25.1317 29.3424 26.754 29.3424C28.1155 29.3424 28.9852 28.6612 28.9852 27.7214C28.9852 26.3074 27.0987 25.7549 25.767 25.1844C23.394 24.1747 21.819 22.9059 21.819 20.2267C21.819 17.7609 23.6985 15.8816 26.6368 15.8816C28.7263 15.8816 30.2312 16.6095 31.311 18.5117L28.7507 20.1566C28.1872 19.1469 27.5765 18.7476 26.6368 18.7476C25.6725 18.7476 25.0618 19.3586 25.0618 20.1566C25.0618 21.1436 25.6725 21.5428 27.083 22.1536C30.0388 23.4206 32.2752 24.4159 32.2752 27.6744C32.2752 30.6354 29.9495 32.2562 26.824 32.2562ZM19.25 27.2985C19.25 30.7057 17.1517 32.5066 14.238 32.5066C11.606 32.5066 10.0292 31.5 9.25399 29.75H9.22777H9.21548H9.20849L11.8842 27.8795C12.4005 28.7948 12.866 29.4441 13.993 29.4441C15.0745 29.4441 15.75 28.8964 15.75 27.2532V15.75H19.25V27.2985ZM0 35H35V0H0V35Z" fill="#161616"/>
</svg>
