<svg width="14" height="14" viewBox="0 0 14 14" fill="none" xmlns="http://www.w3.org/2000/svg">
<path d="M9.6 4.60526C10.6343 4.60526 11.6263 5.03778 12.3577 5.80767C13.0891 6.57755 13.5 7.62174 13.5 8.71053V13.5H10.9V8.71053C10.9 8.3476 10.763 7.99954 10.5192 7.74291C10.2754 7.48628 9.94478 7.34211 9.6 7.34211C9.25522 7.34211 8.92456 7.48628 8.68076 7.74291C8.43696 7.99954 8.3 8.3476 8.3 8.71053V13.5H5.7V8.71053C5.7 7.62174 6.11089 6.57755 6.84228 5.80767C7.57368 5.03778 8.56566 4.60526 9.6 4.60526Z" fill="#161616"/>
<path d="M3.1 5.28947H0.5V13.5H3.1V5.28947Z" fill="#161616"/>
<path d="M1.8 3.23684C2.51797 3.23684 3.1 2.62418 3.1 1.86842C3.1 1.11266 2.51797 0.5 1.8 0.5C1.08203 0.5 0.5 1.11266 0.5 1.86842C0.5 2.62418 1.08203 3.23684 1.8 3.23684Z" fill="#161616"/>
<path d="M9.6 4.60526C10.6343 4.60526 11.6263 5.03778 12.3577 5.80767C13.0891 6.57755 13.5 7.62174 13.5 8.71053V13.5H10.9V8.71053C10.9 8.3476 10.763 7.99954 10.5192 7.74291C10.2754 7.48628 9.94478 7.34211 9.6 7.34211C9.25522 7.34211 8.92456 7.48628 8.68076 7.74291C8.43696 7.99954 8.3 8.3476 8.3 8.71053V13.5H5.7V8.71053C5.7 7.62174 6.11089 6.57755 6.84228 5.80767C7.57368 5.03778 8.56566 4.60526 9.6 4.60526Z" stroke="#161616"/>
<path d="M3.1 5.28947H0.5V13.5H3.1V5.28947Z" stroke="#161616"/>
<path d="M1.8 3.23684C2.51797 3.23684 3.1 2.62418 3.1 1.86842C3.1 1.11266 2.51797 0.5 1.8 0.5C1.08203 0.5 0.5 1.11266 0.5 1.86842C0.5 2.62418 1.08203 3.23684 1.8 3.23684Z" stroke="#161616"/>
</svg>
