<svg width="34" height="35" viewBox="0 0 34 35" fill="none" xmlns="http://www.w3.org/2000/svg">
<path fill-rule="evenodd" clip-rule="evenodd" d="M21.6648 32.3015C20.8454 32.3015 20.1824 31.6156 20.1824 30.7677C20.1824 29.9198 20.8454 29.2356 21.6648 29.2356C22.4842 29.2356 23.1472 29.9198 23.1472 30.7677C23.1472 31.6156 22.4842 32.3015 21.6648 32.3015ZM17.1224 35C25.755 35 25.2161 31.1266 25.2161 31.1266L25.2059 27.1139H16.9694V25.9091H28.4767C28.4767 25.9091 34 26.5582 34 17.5461C34 8.53403 29.1805 8.85168 29.1805 8.85168H26.3024V13.0353C26.3024 13.0353 26.4571 18.0221 21.5594 18.0221H13.3892C13.3892 18.0221 8.79919 17.9471 8.79919 22.6141V30.3293C8.79919 30.3293 8.10218 35 17.1224 35ZM12.3369 2.69849C13.1563 2.69849 13.8176 3.38439 13.8176 4.2323C13.8176 5.08021 13.1563 5.7644 12.3369 5.7644C11.5175 5.7644 10.8545 5.08021 10.8545 4.2323C10.8545 3.38439 11.5175 2.69849 12.3369 2.69849ZM16.8776 0C8.24672 0 8.7856 3.87341 8.7856 3.87341L8.79582 7.88611H17.0323V9.09094H5.52329C5.52329 9.09094 0 8.44176 0 17.4539C0 26.466 4.8212 26.1483 4.8212 26.1483H7.69763V21.9647C7.69763 21.9647 7.5429 16.9779 12.4423 16.9779H20.6108C20.6108 16.9779 25.2008 17.0529 25.2008 12.3859V4.67065C25.2008 4.67065 25.8978 0 16.8776 0Z" fill="#161616"/>
</svg>
