<svg width="39" height="35" viewBox="0 0 39 35" fill="none" xmlns="http://www.w3.org/2000/svg">
<path d="M19.3658 20.3014C18.6321 20.3014 17.9284 20.0063 17.4096 19.4809C16.8907 18.9555 16.5993 18.243 16.5993 17.5C16.5993 16.757 16.8907 16.0445 17.4096 15.5191C17.9284 14.9937 18.6321 14.6986 19.3658 14.6986C20.0995 14.6986 20.8032 14.9937 21.3221 15.5191C21.8409 16.0445 22.1324 16.757 22.1324 17.5C22.1324 18.243 21.8409 18.9555 21.3221 19.4809C20.8032 20.0063 20.0995 20.3014 19.3658 20.3014ZM18.392 25.893C18.7147 26.2852 19.0394 26.6662 19.3658 27.0304C19.6923 26.6662 20.0169 26.2871 20.3396 25.893C19.6905 25.907 19.0411 25.907 18.392 25.893ZM14.7125 25.6596C13.2961 25.5103 11.8891 25.2809 10.4981 24.9723C10.3598 25.6259 10.2547 26.2609 10.1846 26.8698C9.83414 29.8262 10.3229 31.6228 11.0662 32.0561C11.8095 32.4913 13.5893 32.0206 15.9445 30.2371C16.4296 29.8691 16.9183 29.4601 17.4089 29.0138C16.4489 27.9476 15.5487 26.8278 14.7125 25.6596ZM28.2335 24.9723C26.9111 25.2711 25.4983 25.5027 24.0191 25.6596C23.1829 26.8278 22.2827 27.9476 21.3227 29.0138C21.8133 29.462 22.302 29.8691 22.7871 30.2371C25.1424 32.0206 26.9222 32.4913 27.6654 32.0561C28.4087 31.6228 28.8956 29.8262 28.5489 26.8698C28.4728 26.2328 28.3663 25.5997 28.2335 24.9723ZM30.9078 24.2495C31.972 29.1781 31.4132 33.102 29.0487 34.484C26.6842 35.866 23.049 34.3943 19.3658 30.9972C15.6826 34.3943 12.0474 35.8642 9.6829 34.4821C7.31843 33.1001 6.75959 29.1781 7.82194 24.2477C3.07455 22.7181 0 20.2641 0 17.5C0 14.7359 3.07455 12.2838 7.82194 10.7505C6.75959 5.82187 7.31843 1.89803 9.6829 0.516005C12.0474 -0.866023 15.6826 0.60565 19.3658 4.00282C23.049 0.60565 26.6842 -0.864155 29.0487 0.517873C31.4132 1.8999 31.972 5.82187 30.9097 10.7523C35.6571 12.2819 38.7316 14.7359 38.7316 17.5C38.7316 20.2641 35.6571 22.7162 30.9097 24.2495H30.9078ZM17.4071 5.98622C16.9381 5.55631 16.45 5.14813 15.9445 4.76294C13.5893 2.97937 11.8095 2.50874 11.0662 2.94389C10.3229 3.37717 9.83599 5.17381 10.1827 8.13023C10.2565 8.74093 10.3598 9.37405 10.4963 10.0277C11.8879 9.71906 13.2955 9.48961 14.7125 9.34044C15.5886 8.12089 16.4923 6.99846 17.4089 5.98622H17.4071ZM24.0191 9.34044C25.4983 9.49731 26.9111 9.73077 28.2335 10.0277C28.3718 9.37405 28.477 8.73907 28.547 8.13023C28.8975 5.17381 28.4087 3.37717 27.6654 2.94389C26.9222 2.50874 25.1424 2.97937 22.7871 4.76294C22.281 5.14808 21.7923 5.55626 21.3227 5.98622C22.2393 6.99846 23.1431 8.12089 24.0191 9.34044ZM20.3396 9.10699C20.0169 8.71479 19.6923 8.3338 19.3658 7.96961C19.0394 8.3338 18.7147 8.71292 18.392 9.10699C19.0411 9.09304 19.6905 9.09304 20.3396 9.10699ZM12.6745 22.55C12.338 21.988 12.0133 21.4189 11.7006 20.843C11.5254 21.323 11.3631 21.7955 11.2156 22.2643C11.6896 22.3688 12.1783 22.4641 12.6745 22.55ZM16.2378 22.987C18.3203 23.1436 20.4114 23.1436 22.4938 22.987C23.6691 21.2389 24.7146 19.4048 25.6219 17.5C24.7146 15.5952 23.6691 13.7611 22.4938 12.013C20.4114 11.8564 18.3203 11.8564 16.2378 12.013C15.0625 13.7611 14.017 15.5952 13.1097 17.5C14.017 19.4048 15.0625 21.2389 16.2378 22.987ZM27.031 14.157C27.2062 13.677 27.3685 13.2045 27.516 12.7357C27.0325 12.6295 26.5467 12.5342 26.059 12.45C26.3949 13.012 26.7189 13.5811 27.031 14.157ZM8.5394 13.4604C7.91232 13.6658 7.31843 13.8899 6.76143 14.1327C4.05944 15.3056 2.76654 16.6316 2.76654 17.5C2.76654 18.3684 4.0576 19.6944 6.76143 20.8673C7.31843 21.1101 7.91232 21.3342 8.5394 21.5396C8.94885 20.2323 9.45605 18.8764 10.061 17.5C9.4797 16.1833 8.97171 14.8346 8.5394 13.4604ZM11.2137 12.7357C11.3631 13.2026 11.5254 13.677 11.7006 14.1551C12.0133 13.5798 12.338 13.0113 12.6745 12.45C12.1765 12.5359 11.6877 12.6312 11.2137 12.7357ZM30.1922 21.5396C30.8193 21.3342 31.4132 21.1101 31.9702 20.8673C34.6722 19.6944 35.9651 18.3684 35.9651 17.5C35.9651 16.6316 34.674 15.3056 31.9702 14.1327C31.3879 13.8815 30.7946 13.6572 30.1922 13.4604C29.7828 14.7677 29.2756 16.1236 28.6706 17.5C29.2756 18.8764 29.7828 20.2304 30.1922 21.5396ZM27.5179 22.2643C27.3685 21.7974 27.2062 21.323 27.031 20.8449C26.7183 21.4202 26.3936 21.9887 26.0572 22.55C26.5551 22.4641 27.0439 22.3688 27.5179 22.2643Z" fill="#161616"/>
</svg>
