<svg width="30" height="29" viewBox="0 0 30 29" fill="none" xmlns="http://www.w3.org/2000/svg">
<path d="M19.3655 1.26074C19.4952 1.14171 19.6566 1.0632 19.8299 1.03479C20.0032 1.00638 20.181 1.02929 20.3415 1.10073C20.5021 1.17217 20.6386 1.28905 20.7343 1.43713C20.83 1.58522 20.8808 1.75811 20.8806 1.93474V8.51009L12.2228 15.4105L7.76339 12.0082L19.3655 1.26074Z" fill="#161616"/>
<path d="M4.49186 15.1969L0.729439 18.4585C0.492271 18.675 0.350304 18.9774 0.334767 19.2991C0.31923 19.6209 0.431395 19.9357 0.646589 20.1743C0.672479 20.2024 0.69837 20.2295 0.726332 20.2545L2.32223 21.7129C2.53086 21.9036 2.79926 22.0149 3.0809 22.0275C3.36254 22.04 3.63968 21.9531 3.86427 21.7816L8.20664 18.5992L4.49186 15.1969Z" fill="#161616"/>
<path d="M20.8806 20.4889L3.86945 7.21523C3.64494 7.04363 3.36776 6.95654 3.08607 6.9691C2.80437 6.98166 2.53594 7.09307 2.3274 7.28398L0.73151 8.7424C0.49478 8.9593 0.353389 9.2619 0.338435 9.58365C0.323481 9.90539 0.436187 10.2199 0.651767 10.4581C0.677657 10.4862 0.703548 10.5133 0.73151 10.5383L19.3624 27.7268C19.492 27.8462 19.6534 27.9251 19.8269 27.9539C20.0004 27.9827 20.1784 27.9601 20.3393 27.8889C20.5003 27.8177 20.6371 27.7009 20.7332 27.5528C20.8293 27.4047 20.8805 27.2317 20.8806 27.0548V20.4889Z" fill="#1E1E1E"/>
<path d="M22.3367 28.8206C21.9994 28.9837 21.62 29.0374 21.251 28.9743C20.8821 28.9112 20.5416 28.7345 20.2768 28.4685C20.4255 28.6161 20.6143 28.7163 20.8194 28.7565C21.0245 28.7968 21.2368 28.7752 21.4298 28.6945C21.6227 28.6139 21.7877 28.4778 21.9041 28.3032C22.0205 28.1286 22.0831 27.9234 22.084 27.7132V1.28678C22.0839 1.07575 22.0216 0.869481 21.905 0.694028C21.7884 0.518575 21.6228 0.381808 21.429 0.300997C21.2351 0.220185 21.0219 0.198955 20.8161 0.239987C20.6103 0.281018 20.4212 0.382472 20.2727 0.531535C20.5375 0.265515 20.8779 0.0887648 21.2469 0.0256936C21.6159 -0.0373776 21.9952 0.0163415 22.3325 0.179433L28.3029 3.06709C28.611 3.21501 28.8712 3.44755 29.0535 3.73786C29.2359 4.02816 29.3329 4.36442 29.3333 4.7078V24.2922C29.3334 24.6353 29.2371 24.9715 29.0556 25.2619C28.874 25.5524 28.6145 25.7854 28.307 25.934L22.3367 28.8206Z" fill="#1E1E1E"/>
</svg>
